<?xml version="1.0" encoding="utf-8"?>
<!-- Generator: Adobe Illustrator 25.0.0, SVG Export Plug-In . SVG Version: 6.00 Build 0)  -->
<svg version="1.1" id="Layer_1" xmlns="http://www.w3.org/2000/svg" xmlns:xlink="http://www.w3.org/1999/xlink" x="0px" y="0px"
	 viewBox="0 0 200 40" style="enable-background:new 0 0 200 40;" xml:space="preserve">
<style type="text/css">
	.st0{fill:#F9AA1E;}
	.st1{fill:#FFB930;}
	.st2{fill:#29CE6F;}
	.st3{fill:#08C25E;}
	.st4{fill:#FFFFFF;}
	.st5{fill:#303030;}
</style>
<g>
	<path class="st0" d="M-44-557.6c0,0,68.7,11.2,68.7-48.8C24.7-606.4-44-616.3-44-557.6z"/>
	<path class="st1" d="M24.4-606.4C19.9-607-44-614.2-44-557.6c0,0,1,0.2,2.7,0.3C-4.8-573.9,16.1-596.1,24.4-606.4z"/>
	<path class="st0" d="M-43.9-557.6c0,0,15.3-74-66.7-74C-110.6-631.6-124.2-557.6-43.9-557.6z"/>
	<path class="st1" d="M-43.8-558.5c1.4-8.1,10-72.8-66.3-73.1C-101.9-614.9-77.4-570.3-43.8-558.5z"/>
	<path class="st2" d="M25.2-545.5H-111V-559c0-1.5,1.2-2.8,2.8-2.8H22.4c1.5,0,2.8,1.2,2.8,2.8V-545.5z"/>
	<path class="st3" d="M5.3-461.8H-91c-11,0-19.9-8.9-19.9-19.9v-63.8H25.2v63.8C25.2-470.7,16.3-461.8,5.3-461.8z"/>
	<path class="st4" d="M-9.6-531.3C-9.6-531.3-9.6-531.2-9.6-531.3c0,18.4-14.9,33.3-33.2,33.3s-33.2-14.9-33.2-33.2c0,0,0,0,0-0.1
		h-13.7c0,0,0,0,0,0.1c0,25.9,21,47,47,47s47-21,47-47c0,0,0,0,0-0.1H-9.6z"/>
</g>
<g>
	<g>
		<path class="st5" d="M63.6,39.7h-6.1L45.6,20.2v19.5h-6.1V10.1h6.1l11.9,19.5V10.1h6.1L63.6,39.7L63.6,39.7z"/>
		<path class="st5" d="M68.5,12c0-0.9,0.3-1.6,0.9-2.2C70,9.3,70.8,9,71.8,9c1,0,1.8,0.3,2.4,0.9c0.6,0.6,0.9,1.3,0.9,2.2
			s-0.3,1.6-0.9,2.2s-1.4,0.9-2.4,0.9s-1.8-0.3-2.4-0.9S68.5,12.9,68.5,12z M74.8,39.7h-5.9v-22h5.9V39.7z"/>
		<path class="st5" d="M92,23.2c-0.8-0.1-1.5-0.2-2.1-0.2c-2.2,0-3.7,0.8-4.4,2.3v14.4h-5.9v-22h5.6l0.2,2.6c1.2-2,2.8-3,4.9-3
			c0.7,0,1.3,0.1,1.8,0.3L92,23.2z"/>
		<path class="st5" d="M95.2,39.7V10.1h10.4c3.6,0,6.3,0.7,8.2,2.1c1.9,1.4,2.8,3.4,2.8,6.1c0,1.5-0.4,2.7-1.1,3.8
			c-0.8,1.1-1.8,1.9-3.1,2.4c1.5,0.4,2.7,1.1,3.6,2.3c0.9,1.1,1.3,2.6,1.3,4.2c0,2.9-0.9,5-2.7,6.5c-1.8,1.5-4.4,2.2-7.8,2.2H95.2z
			 M101.3,22.5h4.5c3.1,0,4.6-1.3,4.6-3.7c0-1.3-0.4-2.3-1.2-2.9s-2-0.9-3.7-0.9h-4.3C101.3,15.1,101.3,22.5,101.3,22.5z
			 M101.3,26.8v8h5.2c1.4,0,2.6-0.3,3.4-1c0.8-0.7,1.2-1.6,1.2-2.8c0-2.7-1.4-4.1-4.2-4.1L101.3,26.8L101.3,26.8z"/>
		<path class="st5" d="M134.1,39.7c-0.3-0.5-0.5-1.2-0.6-2c-1.4,1.6-3.3,2.4-5.6,2.4c-2.2,0-3.9-0.6-5.4-1.9s-2.1-2.8-2.1-4.7
			c0-2.3,0.9-4.1,2.6-5.4c1.7-1.2,4.2-1.9,7.5-1.9h2.7V25c0-1-0.3-1.8-0.8-2.4s-1.4-0.9-2.5-0.9c-1,0-1.8,0.2-2.3,0.7
			s-0.8,1.1-0.8,2H121c0-1.3,0.4-2.5,1.2-3.5c0.8-1.1,1.9-1.9,3.3-2.5c1.4-0.6,3.1-0.9,4.8-0.9c2.7,0,4.9,0.7,6.5,2
			c1.6,1.4,2.4,3.3,2.4,5.7v9.5c0,2.1,0.3,3.7,0.9,4.7v0.3H134.1z M129.2,35.6c0.9,0,1.7-0.2,2.4-0.6c0.7-0.4,1.3-0.9,1.6-1.6v-3.8
			h-2.2c-2.9,0-4.5,1-4.7,3.1l0,0.3c0,0.7,0.3,1.3,0.8,1.8C127.7,35.4,128.4,35.6,129.2,35.6z"/>
		<path class="st5" d="M150.4,35h10.8v4.7h-18.3v-3.6l10.4-13.7h-10v-4.7h17.6v3.5L150.4,35z"/>
		<path class="st5" d="M177.6,39.7c-0.3-0.5-0.5-1.2-0.6-2c-1.4,1.6-3.3,2.4-5.6,2.4c-2.2,0-3.9-0.6-5.4-1.9
			c-1.4-1.3-2.1-2.8-2.1-4.7c0-2.3,0.9-4.1,2.6-5.4s4.2-1.9,7.5-1.9h2.7V25c0-1-0.3-1.8-0.8-2.4s-1.4-0.9-2.5-0.9
			c-1,0-1.8,0.2-2.3,0.7s-0.8,1.1-0.8,2h-5.9c0-1.3,0.4-2.5,1.2-3.5c0.8-1.1,1.9-1.9,3.3-2.5c1.4-0.6,3.1-0.9,4.8-0.9
			c2.7,0,4.9,0.7,6.5,2c1.6,1.4,2.4,3.3,2.4,5.7v9.5c0,2.1,0.3,3.7,0.9,4.7v0.3L177.6,39.7L177.6,39.7z M172.8,35.6
			c0.9,0,1.7-0.2,2.4-0.6c0.7-0.4,1.3-0.9,1.6-1.6v-3.8h-2.2c-2.9,0-4.5,1-4.7,3.1l0,0.3c0,0.7,0.3,1.3,0.8,1.8
			C171.2,35.4,171.9,35.6,172.8,35.6z"/>
		<path class="st5" d="M199.6,23.2c-0.8-0.1-1.5-0.2-2.1-0.2c-2.2,0-3.7,0.8-4.4,2.3v14.4h-5.9v-22h5.6l0.2,2.6c1.2-2,2.8-3,4.9-3
			c0.6,0,1.3,0.1,1.8,0.3L199.6,23.2z"/>
	</g>
	<g>
		<path class="st0" d="M15.6,17.6c0,0,15.8,2.6,15.8-11.2C31.4,6.3,15.6,4.1,15.6,17.6z"/>
		<path class="st1" d="M31.4,6.3c-1.1-0.1-15.8-1.8-15.8,11.3c0,0,0.2,0,0.6,0.1C24.6,13.9,29.4,8.7,31.4,6.3z"/>
		<path class="st0" d="M15.6,17.6c0,0,3.5-17.1-15.4-17.1C0.2,0.5-2.9,17.6,15.6,17.6z"/>
		<path class="st1" d="M15.6,17.4c0.3-1.9,2.3-16.8-15.3-16.9C2.2,4.4,7.8,14.7,15.6,17.4z"/>
		<path class="st2" d="M31.5,20.4H0.1v-3.1c0-0.4,0.3-0.6,0.6-0.6h30.1c0.4,0,0.6,0.3,0.6,0.6L31.5,20.4L31.5,20.4z"/>
		<path class="st3" d="M26.9,39.7H4.7c-2.5,0-4.6-2-4.6-4.6V20.4h31.4v14.7C31.5,37.7,29.5,39.7,26.9,39.7z"/>
		<path class="st4" d="M23.5,23.7C23.5,23.7,23.5,23.7,23.5,23.7c0,4.3-3.4,7.7-7.7,7.7s-7.7-3.4-7.7-7.7c0,0,0,0,0,0H5c0,0,0,0,0,0
			c0,6,4.9,10.8,10.8,10.8s10.8-4.9,10.8-10.8c0,0,0,0,0,0C26.7,23.7,23.5,23.7,23.5,23.7z"/>
	</g>
</g>
</svg>
